# xmcd
#
# Track frame offsets: 
#        150
#        19809
#        50544
#        79237
#        108329
#        122506
#        144709
#        171393
#        193022
#
# Disc length: 2842 seconds
#
# Revision: 1
# Processed by: cddbd v1.5.1PL0 Copyright (c) Steve Scherf et al.
# Submitted via: ExactAudioCopy v0.95a5
#
DISCID=7b0b1809
DTITLE=Abdullah Ibrahim and Various Artists - re:BRAHIM
DYEAR=2004
DGENRE=Electronic
TTITLE0=Calypso Minor - DJ Explizit
TTITLE1=Did You Hear That Sound - Toshio Matsuura
TTITLE2=Ishmael - Stefan Rogall (Sonarkollektiv)
TTITLE3=The Call - Dave Geene
TTITLE4=Blues For A Hip King - Kinderzimmer Productions
TTITLE5=Mindif (Bigband Version) - Philippp Winter
TTITLE6=Sweet Samba - Christian Prommer (of Faune Flash)
TTITLE7=Damara Blue - Motorcitysoul
TTITLE8=Mindif (Trio Version) - DJ Spooky
EXTD=YEAR: 2004
EXTT0=
EXTT1=
EXTT2=
EXTT3=
EXTT4=
EXTT5=
EXTT6=
EXTT7=
EXTT8=
PLAYORDER=
